<svg width="1332" height="696" viewBox="0 0 1332 696" fill="none" xmlns="http://www.w3.org/2000/svg">
<mask id="mask0" mask-type="alpha" maskUnits="userSpaceOnUse" x="0" y="0" width="1332" height="696">
<path d="M0 0H1332V696H0V0Z" fill="white"/>
</mask>
<g mask="url(#mask0)">
<path d="M0 0H1332V696H0V0Z" fill="white"/>
<mask id="mask1" mask-type="alpha" maskUnits="userSpaceOnUse" x="10" y="401" width="1333" height="293">
<path d="M10.105 401.877H1342.1V693.289H10.105V401.877Z" fill="white"/>
</mask>
<g mask="url(#mask1)">
<path fill-rule="evenodd" clip-rule="evenodd" d="M-248.027 -537.62H1593.86V5790.95H-248.027V-537.62Z" fill="white"/>
</g>
<path fill-rule="evenodd" clip-rule="evenodd" d="M83.152 461.376V625.221H136.438L136.437 645.428L181.829 645.428L181.829 646.08H243.009V509.255L187.75 514.527L187.75 491.971L137.425 486.19L137.424 465.692L83.152 461.376ZM2.23682 607.763V617.18H69.3371V607.763H2.23682ZM299.254 557.785V617.107H360.434L360.435 615.006L507.463 615.007L479.6 600.111C478.316 599.424 476.771 599.055 475.185 599.055H415.574C414.41 599.055 413.261 598.855 412.219 598.472L384.818 588.401C383.953 588.083 383.013 587.891 382.049 587.836L360.435 586.59L360.434 558.525C360.434 558.116 359.985 557.785 359.431 557.785H299.254ZM2.23682 587.482V596.898H69.3371V587.482H2.23682ZM2.23682 567.201V576.617H69.3371V567.201H2.23682ZM2.23682 547.644V557.06H69.3371V547.644H2.23682ZM2.23682 529.536V538.952H69.3371V529.536H2.23682ZM2.23682 509.979V519.395H69.3371V509.979H2.23682ZM2.23682 491.871V501.287H69.3371V491.871H2.23682ZM2.23682 472.314V481.73H69.3371V472.314H2.23682ZM2.23682 454.206V463.622H69.3371V454.206H2.23682Z" fill="#FCF5E8"/>
<path fill-rule="evenodd" clip-rule="evenodd" d="M247.942 636.736V510.703H320.963V636.736" fill="#FCF5E8"/>
<path d="M247.942 636.736V510.703H320.963V636.736" stroke="white" stroke-width="4.368" stroke-linejoin="round"/>
<path d="M292.489 505.811H300.383V651.824H292.489V505.811Z" fill="white"/>
<path d="M270.78 505.811H278.674V651.824H270.78V505.811Z" fill="white"/>
<path fill-rule="evenodd" clip-rule="evenodd" d="M178.542 632.887H1131.57V707.435H178.542V632.887Z" fill="url(#paint0_linear)"/>
<path fill-rule="evenodd" clip-rule="evenodd" d="M-341.875 732.507C268.342 732.507 597.613 638.441 597.613 616.572C597.613 594.704 102.934 576.976 -507.283 576.976C-1117.5 576.976 -1612.18 594.704 -1612.18 616.572C-1612.18 638.441 -952.092 732.507 -341.875 732.507Z" fill="#FCF5E8"/>
<path fill-rule="evenodd" clip-rule="evenodd" d="M1674.38 732.507C1064.17 732.507 734.895 638.441 734.895 616.572C734.895 594.704 1229.57 576.976 1839.79 576.976C2450.01 576.976 2944.69 594.704 2944.69 616.572C2944.69 638.441 2284.6 732.507 1674.38 732.507Z" fill="#FCF5E8"/>
<path fill-rule="evenodd" clip-rule="evenodd" d="M1612.01 425.509C1612.05 425.813 1612.07 426.118 1612.07 426.424V607.209L1510.6 607.209L1510.6 630.279L1458.73 630.279L1458.73 631.023H1280.53L1280.53 595.545L1086.66 595.546L1117.72 578.955C1119.69 577.901 1122.07 577.333 1124.51 577.333H1190.96C1192.75 577.333 1194.51 577.026 1196.11 576.438L1226.28 565.359C1227.61 564.871 1229.06 564.576 1230.54 564.49L1252.89 563.203C1255.55 563.05 1258.06 562.225 1259.99 560.866C1267.98 555.236 1274.83 550.531 1280.54 546.752L1280.53 530.145C1280.53 526.44 1283.77 523.158 1288.55 522.02L1443.6 485.075C1446.47 484.392 1449.43 484.577 1451.97 485.434L1451.97 462.384C1451.97 458.175 1456.13 454.594 1461.76 453.946L1497.24 449.874C1502.42 449.28 1507.33 451.314 1509.47 454.631L1509.47 432.737C1509.47 428.375 1513.93 424.714 1519.81 424.247L1599.26 417.934C1605.61 417.429 1611.32 420.82 1612.01 425.509Z" fill="#FCF5E8"/>
<path fill-rule="evenodd" clip-rule="evenodd" d="M1210.24 620.267C1220.04 619.276 1256.81 619.204 1320.63 620.267C1321.88 620.224 1322.84 620.918 1322.81 621.792C1322.79 622.403 1322.18 622.971 1321.72 623.317C1252.6 624.333 1215.07 624.842 1209.14 624.842L857.201 624.079C855.742 624.079 854.656 623.642 853.922 622.554L850.643 618.742C1083.99 620.844 1203.85 621.352 1210.24 620.267Z" fill="#F2E6CE"/>
<path fill-rule="evenodd" clip-rule="evenodd" d="M1264.82 485.963L1024.27 489.915L986.028 616.388H1227.71C1228.87 616.388 1229.87 615.793 1230.12 614.958L1267.28 488.159C1267.57 487.18 1266.73 486.215 1265.4 486.004C1265.21 485.974 1265.02 485.96 1264.82 485.963Z" fill="#FCF5E8"/>
<path fill-rule="evenodd" clip-rule="evenodd" d="M1251.55 485.912C1252.11 485.912 1252.66 485.956 1253.74 485.912C1257.32 486.71 1259.93 489.701 1259.2 493.116L1222.05 614.787C1222.16 615.186 1221.48 615.588 1220.96 615.588H986.028C985.4 615.588 985.275 615.578 984.935 615.588C984.247 615.407 983.679 614.746 983.843 613.987L1022.09 489.914C1022.98 487.724 1026.08 485.912 1029.74 485.912H1251.55Z" fill="white"/>
<path fill-rule="evenodd" clip-rule="evenodd" d="M1246.93 493.917H1031.68C1031.18 493.917 1030.75 494.171 1030.63 494.53L993.993 608.202C993.855 608.631 994.214 609.061 994.795 609.163C994.877 609.177 994.961 609.184 995.045 609.184H1213.53C1214.04 609.184 1214.48 608.922 1214.58 608.555L1247.99 494.884C1248.11 494.453 1247.74 494.028 1247.16 493.935C1247.08 493.923 1247.01 493.917 1246.93 493.917Z" fill="#FCF5E8"/>
<path fill-rule="evenodd" clip-rule="evenodd" d="M1194.36 616.559H1205.85C1206 616.559 1206.12 616.648 1206.12 616.758V618.788C1206.12 618.898 1206 618.987 1205.85 618.987H1194.36C1194.21 618.987 1194.09 618.898 1194.09 618.788V616.758C1194.09 616.648 1194.21 616.559 1194.36 616.559Z" fill="white"/>
<path fill-rule="evenodd" clip-rule="evenodd" d="M840.752 617.368H1219.68C1219.98 617.368 1220.22 617.547 1220.22 617.767C1220.22 617.796 1220.21 617.825 1220.21 617.853L1218.6 623.219C1218.49 623.584 1218.05 623.845 1217.55 623.845H842.883C842.376 623.845 841.936 623.584 841.827 623.219L840.224 617.853C840.159 617.638 840.344 617.425 840.635 617.378C840.674 617.371 840.713 617.368 840.752 617.368Z" fill="#FCF5E8"/>
<path fill-rule="evenodd" clip-rule="evenodd" d="M839.288 614.13H1197.88C1198.17 614.13 1198.41 614.304 1198.41 614.518C1198.41 614.533 1198.4 614.547 1198.4 614.561L1197.42 621.07C1197.4 621.267 1197.17 621.416 1196.9 621.416H840.265C839.997 621.416 839.771 621.267 839.742 621.07L838.765 614.561C838.733 614.348 838.941 614.156 839.23 614.132C839.25 614.131 839.269 614.13 839.288 614.13Z" fill="white"/>
<path fill-rule="evenodd" clip-rule="evenodd" d="M971.932 613.32H1009.47C1009.74 613.32 1009.96 613.483 1009.96 613.683C1009.96 613.754 1009.93 613.824 1009.87 613.884L1008.34 615.587C1008.25 615.688 1008.1 615.749 1007.93 615.749H973.466C973.301 615.749 973.148 615.688 973.057 615.587L971.523 613.884C971.372 613.717 971.434 613.492 971.66 613.381C971.741 613.341 971.835 613.32 971.932 613.32Z" fill="#FCF5E8"/>
<path fill-rule="evenodd" clip-rule="evenodd" d="M1110.37 614.13H1226.59C1227.36 614.13 1227.99 614.594 1227.99 615.166V620.38C1227.99 620.952 1227.36 621.416 1226.59 621.416H1111.15C1110.43 621.416 1109.83 621.019 1109.75 620.494L1108.97 615.28C1108.89 614.711 1109.44 614.199 1110.21 614.136C1110.26 614.132 1110.31 614.13 1110.37 614.13Z" fill="#FCF5E8"/>
<path fill-rule="evenodd" clip-rule="evenodd" d="M1197.1 616.559C1197.25 616.559 1197.37 616.648 1197.37 616.758V618.788C1197.37 618.898 1197.25 618.987 1197.1 618.987H1185.62C1185.47 618.987 1185.34 618.898 1185.34 618.788V616.758C1185.34 616.648 1185.47 616.559 1185.62 616.559H1197.1ZM1213.51 616.559C1213.66 616.559 1213.78 616.648 1213.78 616.758V618.788C1213.78 618.898 1213.66 618.987 1213.51 618.987H1202.02C1201.87 618.987 1201.75 618.898 1201.75 618.788V616.758C1201.75 616.648 1201.87 616.559 1202.02 616.559H1213.51Z" fill="white"/>
<path fill-rule="evenodd" clip-rule="evenodd" d="M1220.14 504.888C1220.36 504.888 1220.58 504.904 1221.23 504.888C1222.57 505.205 1223.71 506.479 1223.41 508.098L1198.31 596.385C1198.3 597.188 1196.96 597.991 1195.04 597.991H1024.78C1024.54 597.991 1024.3 597.971 1023.69 597.991C1022.3 597.641 1021.19 596.353 1021.51 594.78L1048.79 506.493C1048.86 505.669 1050.19 504.888 1052.06 504.888H1220.14Z" fill="white"/>
<path fill-rule="evenodd" clip-rule="evenodd" d="M1223.05 504.888H1050.07C1049.58 504.888 1049.16 505.133 1049.05 505.481L1047.39 510.506H1222.64L1224.07 505.837C1224.2 505.418 1223.85 505.002 1223.28 504.907C1223.2 504.894 1223.12 504.888 1223.05 504.888Z" fill="#F2E6CE"/>
<path fill-rule="evenodd" clip-rule="evenodd" d="M1064.62 506.493C1065.52 506.493 1066.25 507.032 1066.25 507.697C1066.25 508.362 1065.52 508.901 1064.62 508.901C1063.71 508.901 1062.98 508.362 1062.98 507.697C1062.98 507.032 1063.71 506.493 1064.62 506.493ZM1059.16 506.493C1060.06 506.493 1060.8 507.032 1060.8 507.697C1060.8 508.362 1060.06 508.901 1059.16 508.901C1058.25 508.901 1057.52 508.362 1057.52 507.697C1057.52 507.032 1058.25 506.493 1059.16 506.493ZM1053.7 506.493C1054.61 506.493 1055.34 507.032 1055.34 507.697C1055.34 508.362 1054.61 508.901 1053.7 508.901C1052.8 508.901 1052.06 508.362 1052.06 507.697C1052.06 507.032 1052.8 506.493 1053.7 506.493Z" fill="white"/>
<path d="M1056.43 522.545H1186.3" stroke="#EBE5D8" stroke-width="0.7644" stroke-linecap="round" stroke-linejoin="round"/>
<path d="M1069.53 530.572H1162.29" stroke="#EBE5D8" stroke-width="0.7644" stroke-linecap="round" stroke-linejoin="round"/>
<path d="M1049.88 547.427H1115.36" stroke="#EBE5D8" stroke-width="0.7644" stroke-linecap="round" stroke-linejoin="round"/>
<path d="M1060.79 538.598H1098.99" stroke="#EBE5D8" stroke-width="0.7644" stroke-linecap="round" stroke-linejoin="round"/>
<mask id="mask2" mask-type="alpha" maskUnits="userSpaceOnUse" x="219" y="390" width="855" height="68">
<path d="M219 390H1073.58V458H219V390Z" fill="white"/>
</mask>
<g mask="url(#mask2)">
<path fill-rule="evenodd" clip-rule="evenodd" d="M210.551 385.406H1082.03V462.595H210.551V385.406Z" fill="#FFEBEB"/>
</g>
<path d="M247.716 442H239.22V400.766H247.716V442ZM262.612 411.357L262.867 414.897C265.057 412.16 267.993 410.791 271.675 410.791C274.922 410.791 277.339 411.744 278.925 413.651C280.511 415.558 281.323 418.409 281.36 422.204V442H273.176V422.402C273.176 420.665 272.798 419.41 272.043 418.636C271.288 417.843 270.032 417.446 268.276 417.446C265.973 417.446 264.245 418.428 263.094 420.392V442H254.909V411.357H262.612ZM297.39 403.824V411.357H302.629V417.361H297.39V432.654C297.39 433.787 297.607 434.599 298.041 435.09C298.475 435.581 299.306 435.826 300.533 435.826C301.439 435.826 302.242 435.76 302.94 435.628V441.83C301.336 442.321 299.684 442.566 297.984 442.566C292.245 442.566 289.318 439.668 289.205 433.872V417.361H284.73V411.357H289.205V403.824H297.39ZM324.407 419.032C323.293 418.881 322.312 418.806 321.462 418.806C318.366 418.806 316.336 419.854 315.373 421.949V442H307.188V411.357H314.92L315.146 415.011C316.789 412.198 319.064 410.791 321.972 410.791C322.878 410.791 323.728 410.914 324.521 411.159L324.407 419.032ZM326.078 426.396C326.078 423.356 326.663 420.646 327.834 418.268C329.005 415.889 330.685 414.048 332.875 412.745C335.084 411.442 337.642 410.791 340.55 410.791C344.685 410.791 348.055 412.056 350.66 414.586C353.285 417.116 354.748 420.552 355.05 424.895L355.106 426.99C355.106 431.691 353.794 435.467 351.17 438.318C348.546 441.15 345.024 442.566 340.606 442.566C336.188 442.566 332.658 441.15 330.015 438.318C327.39 435.486 326.078 431.635 326.078 426.764V426.396ZM334.263 426.99C334.263 429.898 334.81 432.126 335.905 433.674C337 435.203 338.567 435.968 340.606 435.968C342.589 435.968 344.137 435.213 345.251 433.702C346.365 432.173 346.922 429.737 346.922 426.396C346.922 423.545 346.365 421.336 345.251 419.769C344.137 418.201 342.57 417.418 340.55 417.418C338.549 417.418 337 418.201 335.905 419.769C334.81 421.317 334.263 423.724 334.263 426.99ZM358.873 426.452C358.873 421.675 359.94 417.871 362.073 415.039C364.226 412.207 367.161 410.791 370.881 410.791C373.864 410.791 376.328 411.905 378.272 414.133V398.5H386.485V442H379.094L378.697 438.743C376.658 441.292 374.034 442.566 370.824 442.566C367.218 442.566 364.32 441.15 362.13 438.318C359.959 435.467 358.873 431.512 358.873 426.452ZM367.058 427.047C367.058 429.917 367.558 432.116 368.559 433.646C369.559 435.175 371.013 435.939 372.92 435.939C375.45 435.939 377.234 434.873 378.272 432.739V420.646C377.253 418.513 375.488 417.446 372.977 417.446C369.031 417.446 367.058 420.646 367.058 427.047ZM411.181 438.885C409.16 441.339 406.366 442.566 402.798 442.566C399.513 442.566 397.002 441.622 395.265 439.734C393.547 437.846 392.669 435.08 392.631 431.437V411.357H400.815V431.153C400.815 434.344 402.269 435.939 405.177 435.939C407.952 435.939 409.859 434.977 410.897 433.051V411.357H419.11V442H411.407L411.181 438.885ZM438.028 435.968C439.539 435.968 440.766 435.552 441.71 434.722C442.654 433.891 443.145 432.786 443.183 431.408H450.857C450.839 433.485 450.272 435.392 449.158 437.129C448.044 438.847 446.515 440.188 444.57 441.15C442.645 442.094 440.511 442.566 438.17 442.566C433.79 442.566 430.335 441.179 427.805 438.403C425.275 435.609 424.01 431.757 424.01 426.849V426.311C424.01 421.59 425.265 417.824 427.776 415.011C430.287 412.198 433.733 410.791 438.113 410.791C441.946 410.791 445.014 411.886 447.317 414.076C449.64 416.247 450.82 419.146 450.857 422.771H443.183C443.145 421.185 442.654 419.901 441.71 418.919C440.766 417.918 439.52 417.418 437.972 417.418C436.065 417.418 434.62 418.117 433.639 419.514C432.676 420.892 432.194 423.139 432.194 426.254V427.104C432.194 430.257 432.676 432.522 433.639 433.9C434.602 435.279 436.065 435.968 438.028 435.968ZM468.274 435.968C469.785 435.968 471.012 435.552 471.956 434.722C472.9 433.891 473.391 432.786 473.429 431.408H481.104C481.085 433.485 480.518 435.392 479.404 437.129C478.29 438.847 476.761 440.188 474.816 441.15C472.891 442.094 470.757 442.566 468.416 442.566C464.036 442.566 460.581 441.179 458.051 438.403C455.521 435.609 454.256 431.757 454.256 426.849V426.311C454.256 421.59 455.511 417.824 458.022 415.011C460.534 412.198 463.979 410.791 468.359 410.791C472.192 410.791 475.26 411.886 477.563 414.076C479.886 416.247 481.066 419.146 481.104 422.771H473.429C473.391 421.185 472.9 419.901 471.956 418.919C471.012 417.918 469.766 417.418 468.218 417.418C466.311 417.418 464.867 418.117 463.885 419.514C462.922 420.892 462.44 423.139 462.44 426.254V427.104C462.44 430.257 462.922 432.522 463.885 433.9C464.848 435.279 466.311 435.968 468.274 435.968ZM494.414 442H486.201V411.357H494.414V442ZM485.72 403.428C485.72 402.201 486.126 401.19 486.938 400.397C487.768 399.604 488.892 399.208 490.308 399.208C491.705 399.208 492.819 399.604 493.649 400.397C494.48 401.19 494.896 402.201 494.896 403.428C494.896 404.674 494.471 405.693 493.621 406.486C492.79 407.279 491.686 407.676 490.308 407.676C488.929 407.676 487.815 407.279 486.966 406.486C486.135 405.693 485.72 404.674 485.72 403.428ZM499.908 426.396C499.908 423.356 500.493 420.646 501.664 418.268C502.835 415.889 504.515 414.048 506.705 412.745C508.914 411.442 511.472 410.791 514.38 410.791C518.515 410.791 521.885 412.056 524.49 414.586C527.115 417.116 528.578 420.552 528.88 424.895L528.937 426.99C528.937 431.691 527.624 435.467 525 438.318C522.376 441.15 518.854 442.566 514.437 442.566C510.019 442.566 506.488 441.15 503.845 438.318C501.22 435.486 499.908 431.635 499.908 426.764V426.396ZM508.093 426.99C508.093 429.898 508.64 432.126 509.735 433.674C510.83 435.203 512.397 435.968 514.437 435.968C516.419 435.968 517.967 435.213 519.081 433.702C520.195 432.173 520.752 429.737 520.752 426.396C520.752 423.545 520.195 421.336 519.081 419.769C517.967 418.201 516.4 417.418 514.38 417.418C512.379 417.418 510.83 418.201 509.735 419.769C508.64 421.317 508.093 423.724 508.093 426.99ZM515.994 398.5H524.915L517.07 407.279H510.415L515.994 398.5ZM541.511 411.357L541.766 414.897C543.956 412.16 546.892 410.791 550.573 410.791C553.821 410.791 556.237 411.744 557.823 413.651C559.409 415.558 560.221 418.409 560.259 422.204V442H552.074V422.402C552.074 420.665 551.697 419.41 550.941 418.636C550.186 417.843 548.931 417.446 547.175 417.446C544.871 417.446 543.144 418.428 541.992 420.392V442H533.808V411.357H541.511ZM598.689 442C598.312 441.264 598.038 440.348 597.868 439.253C595.886 441.462 593.309 442.566 590.137 442.566C587.135 442.566 584.643 441.698 582.66 439.961C580.697 438.224 579.715 436.034 579.715 433.391C579.715 430.143 580.914 427.651 583.312 425.914C585.728 424.177 589.212 423.299 593.762 423.28H597.528V421.524C597.528 420.108 597.16 418.976 596.424 418.126C595.706 417.276 594.564 416.852 592.997 416.852C591.619 416.852 590.533 417.182 589.74 417.843C588.966 418.504 588.579 419.41 588.579 420.562H580.395C580.395 418.787 580.942 417.144 582.037 415.634C583.132 414.123 584.68 412.943 586.682 412.094C588.683 411.225 590.93 410.791 593.422 410.791C597.198 410.791 600.19 411.744 602.399 413.651C604.627 415.539 605.741 418.201 605.741 421.638V434.92C605.76 437.827 606.166 440.027 606.959 441.519V442H598.689ZM591.921 436.308C593.129 436.308 594.243 436.043 595.263 435.515C596.282 434.967 597.037 434.24 597.528 433.334V428.066H594.47C590.373 428.066 588.192 429.482 587.928 432.314L587.899 432.796C587.899 433.815 588.258 434.656 588.976 435.316C589.693 435.977 590.675 436.308 591.921 436.308ZM635.109 442H626.896V398.5H635.109V442ZM659.635 442C659.257 441.264 658.983 440.348 658.813 439.253C656.831 441.462 654.254 442.566 651.082 442.566C648.08 442.566 645.588 441.698 643.605 439.961C641.642 438.224 640.66 436.034 640.66 433.391C640.66 430.143 641.859 427.651 644.257 425.914C646.674 424.177 650.157 423.299 654.707 423.28H658.474V421.524C658.474 420.108 658.105 418.976 657.369 418.126C656.652 417.276 655.509 416.852 653.942 416.852C652.564 416.852 651.479 417.182 650.686 417.843C649.911 418.504 649.524 419.41 649.524 420.562H641.34C641.34 418.787 641.887 417.144 642.982 415.634C644.077 414.123 645.626 412.943 647.627 412.094C649.628 411.225 651.875 410.791 654.367 410.791C658.143 410.791 661.136 411.744 663.345 413.651C665.573 415.539 666.687 418.201 666.687 421.638V434.92C666.705 437.827 667.111 440.027 667.904 441.519V442H659.635ZM652.866 436.308C654.075 436.308 655.188 436.043 656.208 435.515C657.228 434.967 657.983 434.24 658.474 433.334V428.066H655.415C651.318 428.066 649.137 429.482 648.873 432.314L648.845 432.796C648.845 433.815 649.203 434.656 649.921 435.316C650.638 435.977 651.62 436.308 652.866 436.308ZM715.001 426.962C715.001 431.682 713.925 435.467 711.772 438.318C709.639 441.15 706.75 442.566 703.106 442.566C700.01 442.566 697.508 441.49 695.602 439.338V453.781H687.417V411.357H695.007L695.29 414.359C697.272 411.98 699.859 410.791 703.05 410.791C706.826 410.791 709.762 412.188 711.857 414.982C713.953 417.777 715.001 421.628 715.001 426.537V426.962ZM706.816 426.367C706.816 423.516 706.307 421.317 705.287 419.769C704.286 418.22 702.823 417.446 700.897 417.446C698.33 417.446 696.564 418.428 695.602 420.392V432.938C696.602 434.958 698.386 435.968 700.954 435.968C704.862 435.968 706.816 432.768 706.816 426.367ZM737.317 419.032C736.203 418.881 735.222 418.806 734.372 418.806C731.276 418.806 729.246 419.854 728.283 421.949V442H720.099V411.357H727.83L728.057 415.011C729.699 412.198 731.974 410.791 734.882 410.791C735.788 410.791 736.638 410.914 737.431 411.159L737.317 419.032ZM738.988 426.396C738.988 423.356 739.574 420.646 740.744 418.268C741.915 415.889 743.595 414.048 745.785 412.745C747.994 411.442 750.552 410.791 753.46 410.791C757.595 410.791 760.965 412.056 763.57 414.586C766.195 417.116 767.658 420.552 767.96 424.895L768.017 426.99C768.017 431.691 766.704 435.467 764.08 438.318C761.456 441.15 757.935 442.566 753.517 442.566C749.099 442.566 745.568 441.15 742.925 438.318C740.3 435.486 738.988 431.635 738.988 426.764V426.396ZM747.173 426.99C747.173 429.898 747.72 432.126 748.815 433.674C749.91 435.203 751.478 435.968 753.517 435.968C755.499 435.968 757.047 435.213 758.161 433.702C759.275 432.173 759.832 429.737 759.832 426.396C759.832 423.545 759.275 421.336 758.161 419.769C757.047 418.201 755.48 417.418 753.46 417.418C751.459 417.418 749.91 418.201 748.815 419.769C747.72 421.317 747.173 423.724 747.173 426.99ZM771.868 426.452C771.868 421.751 772.982 417.965 775.21 415.096C777.457 412.226 780.478 410.791 784.272 410.791C787.633 410.791 790.248 411.943 792.117 414.246L792.457 411.357H799.877V440.98C799.877 443.661 799.263 445.993 798.036 447.976C796.828 449.958 795.119 451.468 792.91 452.507C790.701 453.545 788.115 454.064 785.15 454.064C782.904 454.064 780.714 453.611 778.58 452.705C776.447 451.818 774.832 450.666 773.737 449.25L777.362 444.266C779.401 446.55 781.875 447.692 784.782 447.692C786.953 447.692 788.643 447.107 789.852 445.937C791.06 444.785 791.664 443.142 791.664 441.009V439.366C789.776 441.5 787.293 442.566 784.216 442.566C780.534 442.566 777.551 441.132 775.267 438.262C773.001 435.373 771.868 431.55 771.868 426.792V426.452ZM780.053 427.047C780.053 429.822 780.61 432.003 781.724 433.589C782.838 435.156 784.367 435.939 786.312 435.939C788.804 435.939 790.588 435.005 791.664 433.136V420.25C790.569 418.381 788.804 417.446 786.368 417.446C784.405 417.446 782.856 418.249 781.724 419.854C780.61 421.458 780.053 423.856 780.053 427.047ZM823.411 419.032C822.297 418.881 821.315 418.806 820.466 418.806C817.369 418.806 815.34 419.854 814.377 421.949V442H806.192V411.357H813.924L814.15 415.011C815.793 412.198 818.068 410.791 820.976 410.791C821.882 410.791 822.731 410.914 823.524 411.159L823.411 419.032ZM844.283 442C843.906 441.264 843.632 440.348 843.462 439.253C841.479 441.462 838.902 442.566 835.73 442.566C832.729 442.566 830.236 441.698 828.254 439.961C826.29 438.224 825.309 436.034 825.309 433.391C825.309 430.143 826.507 427.651 828.905 425.914C831.322 424.177 834.805 423.299 839.355 423.28H843.122V421.524C843.122 420.108 842.754 418.976 842.018 418.126C841.3 417.276 840.158 416.852 838.591 416.852C837.213 416.852 836.127 417.182 835.334 417.843C834.56 418.504 834.173 419.41 834.173 420.562H825.988C825.988 418.787 826.536 417.144 827.631 415.634C828.726 414.123 830.274 412.943 832.275 412.094C834.277 411.225 836.523 410.791 839.016 410.791C842.792 410.791 845.784 411.744 847.993 413.651C850.221 415.539 851.335 418.201 851.335 421.638V434.92C851.354 437.827 851.76 440.027 852.553 441.519V442H844.283ZM837.515 436.308C838.723 436.308 839.837 436.043 840.856 435.515C841.876 434.967 842.631 434.24 843.122 433.334V428.066H840.063C835.966 428.066 833.786 429.482 833.521 432.314L833.493 432.796C833.493 433.815 833.852 434.656 834.569 435.316C835.287 435.977 836.269 436.308 837.515 436.308ZM865.297 411.357L865.552 414.784C867.723 412.122 870.659 410.791 874.359 410.791C878.305 410.791 881.015 412.349 882.487 415.464C884.64 412.349 887.708 410.791 891.691 410.791C895.014 410.791 897.488 411.763 899.111 413.708C900.735 415.634 901.547 418.541 901.547 422.431V442H893.334V422.459C893.334 420.722 892.994 419.457 892.314 418.664C891.635 417.852 890.436 417.446 888.718 417.446C886.263 417.446 884.564 418.617 883.62 420.958L883.648 442H875.464V422.487C875.464 420.713 875.115 419.429 874.416 418.636C873.717 417.843 872.528 417.446 870.848 417.446C868.525 417.446 866.845 418.409 865.807 420.335V442H857.622V411.357H865.297ZM925.619 442C925.242 441.264 924.968 440.348 924.798 439.253C922.815 441.462 920.238 442.566 917.066 442.566C914.064 442.566 911.572 441.698 909.59 439.961C907.626 438.224 906.645 436.034 906.645 433.391C906.645 430.143 907.843 427.651 910.241 425.914C912.658 424.177 916.141 423.299 920.691 423.28H924.458V421.524C924.458 420.108 924.09 418.976 923.354 418.126C922.636 417.276 921.494 416.852 919.927 416.852C918.549 416.852 917.463 417.182 916.67 417.843C915.896 418.504 915.509 419.41 915.509 420.562H907.324C907.324 418.787 907.872 417.144 908.967 415.634C910.062 414.123 911.61 412.943 913.611 412.094C915.613 411.225 917.859 410.791 920.352 410.791C924.128 410.791 927.12 411.744 929.329 413.651C931.557 415.539 932.671 418.201 932.671 421.638V434.92C932.69 437.827 933.096 440.027 933.889 441.519V442H925.619ZM918.851 436.308C920.059 436.308 921.173 436.043 922.192 435.515C923.212 434.967 923.967 434.24 924.458 433.334V428.066H921.399C917.302 428.066 915.122 429.482 914.857 432.314L914.829 432.796C914.829 433.815 915.188 434.656 915.905 435.316C916.623 435.977 917.604 436.308 918.851 436.308ZM951.702 435.968C953.213 435.968 954.44 435.552 955.384 434.722C956.328 433.891 956.819 432.786 956.856 431.408H964.531C964.512 433.485 963.946 435.392 962.832 437.129C961.718 438.847 960.189 440.188 958.244 441.15C956.318 442.094 954.185 442.566 951.844 442.566C947.464 442.566 944.008 441.179 941.479 438.403C938.949 435.609 937.684 431.757 937.684 426.849V426.311C937.684 421.59 938.939 417.824 941.45 415.011C943.961 412.198 947.407 410.791 951.787 410.791C955.62 410.791 958.688 411.886 960.991 414.076C963.313 416.247 964.493 419.146 964.531 422.771H956.856C956.819 421.185 956.328 419.901 955.384 418.919C954.44 417.918 953.194 417.418 951.646 417.418C949.739 417.418 948.294 418.117 947.312 419.514C946.35 420.892 945.868 423.139 945.868 426.254V427.104C945.868 430.257 946.35 432.522 947.312 433.9C948.275 435.279 949.739 435.968 951.702 435.968ZM977.842 442H969.629V411.357H977.842V442ZM969.147 403.428C969.147 402.201 969.553 401.19 970.365 400.397C971.196 399.604 972.319 399.208 973.735 399.208C975.132 399.208 976.246 399.604 977.077 400.397C977.908 401.19 978.323 402.201 978.323 403.428C978.323 404.674 977.898 405.693 977.049 406.486C976.218 407.279 975.114 407.676 973.735 407.676C972.357 407.676 971.243 407.279 970.394 406.486C969.563 405.693 969.147 404.674 969.147 403.428ZM983.336 426.396C983.336 423.356 983.921 420.646 985.092 418.268C986.262 415.889 987.943 414.048 990.133 412.745C992.342 411.442 994.9 410.791 997.808 410.791C1001.94 410.791 1005.31 412.056 1007.92 414.586C1010.54 417.116 1012.01 420.552 1012.31 424.895L1012.36 426.99C1012.36 431.691 1011.05 435.467 1008.43 438.318C1005.8 441.15 1002.28 442.566 997.864 442.566C993.446 442.566 989.916 441.15 987.272 438.318C984.648 435.486 983.336 431.635 983.336 426.764V426.396ZM991.521 426.99C991.521 429.898 992.068 432.126 993.163 433.674C994.258 435.203 995.825 435.968 997.864 435.968C999.847 435.968 1001.39 435.213 1002.51 433.702C1003.62 432.173 1004.18 429.737 1004.18 426.396C1004.18 423.545 1003.62 421.336 1002.51 419.769C1001.39 418.201 999.828 417.418 997.808 417.418C995.806 417.418 994.258 418.201 993.163 419.769C992.068 421.317 991.521 423.724 991.521 426.99ZM999.422 398.5H1008.34L1000.5 407.279H993.843L999.422 398.5ZM1024.94 411.357L1025.19 414.897C1027.38 412.16 1030.32 410.791 1034 410.791C1037.25 410.791 1039.67 411.744 1041.25 413.651C1042.84 415.558 1043.65 418.409 1043.69 422.204V442H1035.5V422.402C1035.5 420.665 1035.12 419.41 1034.37 418.636C1033.61 417.843 1032.36 417.446 1030.6 417.446C1028.3 417.446 1026.57 418.428 1025.42 420.392V442H1017.24V411.357H1024.94Z" fill="#FD1016"/>
<path d="M444.289 365.209H435.936V374H433.311V354.094H445.643V356.254H435.936V363.062H444.289V365.209ZM451.604 374H448.979V354.094H451.604V374ZM471.715 374H469.076L459.055 358.66V374H456.416V354.094H459.055L469.104 369.502V354.094H471.715V374ZM487.615 368.805H479.275L477.402 374H474.695L482.297 354.094H484.594L492.209 374H489.516L487.615 368.805ZM480.068 366.645H486.836L483.445 357.334L480.068 366.645ZM497.527 371.854H506.961V374H494.889V354.094H497.527V371.854ZM512.771 374H510.146V354.094H512.771V374ZM519.553 371.854H530.941V374H516.449V372.031L527.359 356.254H516.627V354.094H530.504V356.021L519.553 371.854ZM549.303 364.689C549.303 366.64 548.975 368.344 548.318 369.803C547.662 371.252 546.732 372.359 545.529 373.125C544.326 373.891 542.923 374.273 541.318 374.273C539.751 374.273 538.361 373.891 537.148 373.125C535.936 372.35 534.993 371.252 534.318 369.83C533.653 368.399 533.311 366.745 533.293 364.867V363.432C533.293 361.518 533.626 359.827 534.291 358.359C534.956 356.892 535.895 355.771 537.107 354.996C538.329 354.212 539.723 353.82 541.291 353.82C542.886 353.82 544.29 354.208 545.502 354.982C546.723 355.748 547.662 356.865 548.318 358.332C548.975 359.79 549.303 361.49 549.303 363.432V364.689ZM546.691 363.404C546.691 361.044 546.217 359.234 545.27 357.977C544.322 356.71 542.995 356.076 541.291 356.076C539.632 356.076 538.324 356.71 537.367 357.977C536.419 359.234 535.932 360.984 535.904 363.227V364.689C535.904 366.977 536.383 368.777 537.34 370.09C538.306 371.393 539.632 372.045 541.318 372.045C543.014 372.045 544.326 371.43 545.256 370.199C546.186 368.96 546.664 367.187 546.691 364.881V363.404ZM542.576 348.734H545.639L541.975 352.754H539.938L542.576 348.734ZM571.438 364.799H562.811V371.854H572.832V374H560.186V354.094H572.695V356.254H562.811V362.652H571.438V364.799ZM582.594 361.723L587.365 354.094H590.455L584.166 363.965L590.605 374H587.488L582.594 366.234L577.672 374H574.568L581.021 363.965L574.719 354.094H577.795L582.594 361.723ZM596.471 374H593.846V354.094H596.471V374ZM614.627 356.254H608.229V374H605.617V356.254H599.232V354.094H614.627V356.254ZM632.51 364.689C632.51 366.64 632.182 368.344 631.525 369.803C630.869 371.252 629.939 372.359 628.736 373.125C627.533 373.891 626.13 374.273 624.525 374.273C622.958 374.273 621.568 373.891 620.355 373.125C619.143 372.35 618.2 371.252 617.525 369.83C616.86 368.399 616.518 366.745 616.5 364.867V363.432C616.5 361.518 616.833 359.827 617.498 358.359C618.163 356.892 619.102 355.771 620.314 354.996C621.536 354.212 622.93 353.82 624.498 353.82C626.093 353.82 627.497 354.208 628.709 354.982C629.93 355.748 630.869 356.865 631.525 358.332C632.182 359.79 632.51 361.49 632.51 363.432V364.689ZM629.898 363.404C629.898 361.044 629.424 359.234 628.477 357.977C627.529 356.71 626.202 356.076 624.498 356.076C622.839 356.076 621.531 356.71 620.574 357.977C619.626 359.234 619.139 360.984 619.111 363.227V364.689C619.111 366.977 619.59 368.777 620.547 370.09C621.513 371.393 622.839 372.045 624.525 372.045C626.221 372.045 627.533 371.43 628.463 370.199C629.393 368.96 629.871 367.187 629.898 364.881V363.404ZM642.312 365.127C640.061 364.48 638.421 363.687 637.391 362.748C636.37 361.8 635.859 360.633 635.859 359.248C635.859 357.68 636.484 356.386 637.732 355.365C638.99 354.335 640.622 353.82 642.627 353.82C643.994 353.82 645.211 354.085 646.277 354.613C647.353 355.142 648.182 355.871 648.766 356.801C649.358 357.73 649.654 358.747 649.654 359.85H647.016C647.016 358.646 646.633 357.703 645.867 357.02C645.102 356.327 644.021 355.98 642.627 355.98C641.333 355.98 640.321 356.268 639.592 356.842C638.872 357.407 638.512 358.195 638.512 359.207C638.512 360.018 638.854 360.706 639.537 361.271C640.23 361.827 641.401 362.338 643.051 362.803C644.71 363.268 646.004 363.783 646.934 364.348C647.872 364.904 648.565 365.555 649.012 366.303C649.467 367.05 649.695 367.93 649.695 368.941C649.695 370.555 649.066 371.849 647.809 372.824C646.551 373.79 644.869 374.273 642.764 374.273C641.396 374.273 640.12 374.014 638.936 373.494C637.751 372.965 636.835 372.245 636.188 371.334C635.549 370.423 635.23 369.388 635.23 368.23H637.869C637.869 369.434 638.311 370.386 639.195 371.088C640.089 371.781 641.278 372.127 642.764 372.127C644.149 372.127 645.211 371.844 645.949 371.279C646.688 370.714 647.057 369.944 647.057 368.969C647.057 367.993 646.715 367.242 646.031 366.713C645.348 366.175 644.108 365.646 642.312 365.127ZM664.064 368.805H655.725L653.852 374H651.145L658.746 354.094H661.043L668.658 374H665.965L664.064 368.805ZM656.518 366.645H663.285L659.895 357.334L656.518 366.645ZM674.729 354.094L681.236 370.336L687.744 354.094H691.148V374H688.523V366.248L688.77 357.881L682.234 374H680.225L673.703 357.922L673.963 366.248V374H671.338V354.094H674.729ZM707.035 364.799H698.408V371.854H708.43V374H695.783V354.094H708.293V356.254H698.408V362.652H707.035V364.799ZM726.996 374H724.357L714.336 358.66V374H711.697V354.094H714.336L724.385 369.502V354.094H726.996V374ZM745.002 356.254H738.604V374H735.992V356.254H729.607V354.094H745.002V356.254ZM759.207 364.799H750.58V371.854H760.602V374H747.955V354.094H760.465V356.254H750.58V362.652H759.207V364.799ZM782.066 364.799H773.439V371.854H783.461V374H770.814V354.094H783.324V356.254H773.439V362.652H782.066V364.799ZM789.367 371.854H798.801V374H786.729V354.094H789.367V371.854ZM823.383 367.684C823.137 369.789 822.357 371.416 821.045 372.564C819.742 373.704 818.005 374.273 815.836 374.273C813.484 374.273 811.598 373.43 810.176 371.744C808.763 370.058 808.057 367.802 808.057 364.977V363.062C808.057 361.212 808.385 359.585 809.041 358.182C809.706 356.778 810.645 355.702 811.857 354.955C813.07 354.199 814.473 353.82 816.068 353.82C818.183 353.82 819.878 354.413 821.154 355.598C822.43 356.773 823.173 358.405 823.383 360.492H820.744C820.516 358.906 820.02 357.758 819.254 357.047C818.497 356.336 817.436 355.98 816.068 355.98C814.391 355.98 813.074 356.6 812.117 357.84C811.169 359.079 810.695 360.843 810.695 363.131V365.059C810.695 367.219 811.146 368.937 812.049 370.213C812.951 371.489 814.214 372.127 815.836 372.127C817.294 372.127 818.411 371.799 819.186 371.143C819.969 370.477 820.489 369.324 820.744 367.684H823.383ZM840.992 354.094V367.629C840.983 369.507 840.391 371.042 839.215 372.236C838.048 373.43 836.462 374.1 834.457 374.246L833.76 374.273C831.581 374.273 829.845 373.686 828.551 372.51C827.257 371.334 826.6 369.716 826.582 367.656V354.094H829.18V367.574C829.18 369.014 829.576 370.135 830.369 370.938C831.162 371.73 832.292 372.127 833.76 372.127C835.245 372.127 836.38 371.73 837.164 370.938C837.957 370.145 838.354 369.028 838.354 367.588V354.094H840.992ZM852.436 365.947H847.76V374H845.121V354.094H851.711C853.953 354.094 855.676 354.604 856.879 355.625C858.091 356.646 858.697 358.132 858.697 360.082C858.697 361.322 858.36 362.402 857.686 363.322C857.02 364.243 856.09 364.931 854.896 365.387L859.572 373.836V374H856.756L852.436 365.947ZM847.76 363.801H851.793C853.096 363.801 854.131 363.464 854.896 362.789C855.671 362.115 856.059 361.212 856.059 360.082C856.059 358.852 855.689 357.908 854.951 357.252C854.222 356.596 853.165 356.263 851.779 356.254H847.76V363.801ZM868.254 365.127C866.003 364.48 864.362 363.687 863.332 362.748C862.311 361.8 861.801 360.633 861.801 359.248C861.801 357.68 862.425 356.386 863.674 355.365C864.932 354.335 866.563 353.82 868.568 353.82C869.936 353.82 871.152 354.085 872.219 354.613C873.294 355.142 874.124 355.871 874.707 356.801C875.299 357.73 875.596 358.747 875.596 359.85H872.957C872.957 358.646 872.574 357.703 871.809 357.02C871.043 356.327 869.963 355.98 868.568 355.98C867.274 355.98 866.262 356.268 865.533 356.842C864.813 357.407 864.453 358.195 864.453 359.207C864.453 360.018 864.795 360.706 865.479 361.271C866.171 361.827 867.342 362.338 868.992 362.803C870.651 363.268 871.945 363.783 872.875 364.348C873.814 364.904 874.507 365.555 874.953 366.303C875.409 367.05 875.637 367.93 875.637 368.941C875.637 370.555 875.008 371.849 873.75 372.824C872.492 373.79 870.811 374.273 868.705 374.273C867.338 374.273 866.062 374.014 864.877 373.494C863.692 372.965 862.776 372.245 862.129 371.334C861.491 370.423 861.172 369.388 861.172 368.23H863.811C863.811 369.434 864.253 370.386 865.137 371.088C866.03 371.781 867.219 372.127 868.705 372.127C870.09 372.127 871.152 371.844 871.891 371.279C872.629 370.714 872.998 369.944 872.998 368.969C872.998 367.993 872.656 367.242 871.973 366.713C871.289 366.175 870.049 365.646 868.254 365.127ZM894.326 364.689C894.326 366.64 893.998 368.344 893.342 369.803C892.686 371.252 891.756 372.359 890.553 373.125C889.35 373.891 887.946 374.273 886.342 374.273C884.774 374.273 883.384 373.891 882.172 373.125C880.96 372.35 880.016 371.252 879.342 369.83C878.676 368.399 878.335 366.745 878.316 364.867V363.432C878.316 361.518 878.649 359.827 879.314 358.359C879.98 356.892 880.919 355.771 882.131 354.996C883.352 354.212 884.747 353.82 886.314 353.82C887.91 353.82 889.313 354.208 890.525 354.982C891.747 355.748 892.686 356.865 893.342 358.332C893.998 359.79 894.326 361.49 894.326 363.432V364.689ZM891.715 363.404C891.715 361.044 891.241 359.234 890.293 357.977C889.345 356.71 888.019 356.076 886.314 356.076C884.656 356.076 883.348 356.71 882.391 357.977C881.443 359.234 880.955 360.984 880.928 363.227V364.689C880.928 366.977 881.406 368.777 882.363 370.09C883.329 371.393 884.656 372.045 886.342 372.045C888.037 372.045 889.35 371.43 890.279 370.199C891.209 368.96 891.688 367.187 891.715 364.881V363.404Z" fill="black"/>
<path d="M548.953 242.684C548.707 244.789 547.928 246.416 546.615 247.564C545.312 248.704 543.576 249.273 541.406 249.273C539.055 249.273 537.168 248.43 535.746 246.744C534.333 245.058 533.627 242.802 533.627 239.977V238.062C533.627 236.212 533.955 234.585 534.611 233.182C535.277 231.778 536.215 230.702 537.428 229.955C538.64 229.199 540.044 228.82 541.639 228.82C543.753 228.82 545.449 229.413 546.725 230.598C548.001 231.773 548.743 233.405 548.953 235.492H546.314C546.087 233.906 545.59 232.758 544.824 232.047C544.068 231.336 543.006 230.98 541.639 230.98C539.962 230.98 538.645 231.6 537.688 232.84C536.74 234.079 536.266 235.843 536.266 238.131V240.059C536.266 242.219 536.717 243.937 537.619 245.213C538.521 246.489 539.784 247.127 541.406 247.127C542.865 247.127 543.981 246.799 544.756 246.143C545.54 245.477 546.059 244.324 546.314 242.684H548.953ZM563.801 239.799H555.174V246.854H565.195V249H552.549V229.094H565.059V231.254H555.174V237.652H563.801V239.799ZM575.764 240.947H571.088V249H568.449V229.094H575.039C577.281 229.094 579.004 229.604 580.207 230.625C581.419 231.646 582.025 233.132 582.025 235.082C582.025 236.322 581.688 237.402 581.014 238.322C580.348 239.243 579.419 239.931 578.225 240.387L582.9 248.836V249H580.084L575.764 240.947ZM571.088 238.801H575.121C576.424 238.801 577.459 238.464 578.225 237.789C578.999 237.115 579.387 236.212 579.387 235.082C579.387 233.852 579.018 232.908 578.279 232.252C577.55 231.596 576.493 231.263 575.107 231.254H571.088V238.801ZM598.377 231.254H591.979V249H589.367V231.254H582.982V229.094H598.377V231.254ZM604.146 249H601.521V229.094H604.146V249ZM619.938 240.209H611.584V249H608.959V229.094H621.291V231.254H611.584V238.062H619.938V240.209ZM627.252 249H624.627V229.094H627.252V249ZM646.707 242.684C646.461 244.789 645.682 246.416 644.369 247.564C643.066 248.704 641.329 249.273 639.16 249.273C636.809 249.273 634.922 248.43 633.5 246.744C632.087 245.058 631.381 242.802 631.381 239.977V238.062C631.381 236.212 631.709 234.585 632.365 233.182C633.031 231.778 633.969 230.702 635.182 229.955C636.394 229.199 637.798 228.82 639.393 228.82C641.507 228.82 643.202 229.413 644.479 230.598C645.755 231.773 646.497 233.405 646.707 235.492H644.068C643.84 233.906 643.344 232.758 642.578 232.047C641.822 231.336 640.76 230.98 639.393 230.98C637.715 230.98 636.398 231.6 635.441 232.84C634.493 234.079 634.02 235.843 634.02 238.131V240.059C634.02 242.219 634.471 243.937 635.373 245.213C636.275 246.489 637.538 247.127 639.16 247.127C640.618 247.127 641.735 246.799 642.51 246.143C643.294 245.477 643.813 244.324 644.068 242.684H646.707ZM661.295 243.805H652.955L651.082 249H648.375L655.977 229.094H658.273L665.889 249H663.195L661.295 243.805ZM653.748 241.645H660.516L657.125 232.334L653.748 241.645ZM671.959 229.094L678.467 245.336L684.975 229.094H688.379V249H685.754V241.248L686 232.881L679.465 249H677.455L670.934 232.922L671.193 241.248V249H668.568V229.094H671.959ZM708.326 239.689C708.326 241.64 707.998 243.344 707.342 244.803C706.686 246.252 705.756 247.359 704.553 248.125C703.35 248.891 701.946 249.273 700.342 249.273C698.774 249.273 697.384 248.891 696.172 248.125C694.96 247.35 694.016 246.252 693.342 244.83C692.676 243.399 692.335 241.745 692.316 239.867V238.432C692.316 236.518 692.649 234.827 693.314 233.359C693.98 231.892 694.919 230.771 696.131 229.996C697.352 229.212 698.747 228.82 700.314 228.82C701.91 228.82 703.313 229.208 704.525 229.982C705.747 230.748 706.686 231.865 707.342 233.332C707.998 234.79 708.326 236.49 708.326 238.432V239.689ZM705.715 238.404C705.715 236.044 705.241 234.234 704.293 232.977C703.345 231.71 702.019 231.076 700.314 231.076C698.656 231.076 697.348 231.71 696.391 232.977C695.443 234.234 694.955 235.984 694.928 238.227V239.689C694.928 241.977 695.406 243.777 696.363 245.09C697.329 246.393 698.656 247.045 700.342 247.045C702.037 247.045 703.35 246.43 704.279 245.199C705.209 243.96 705.688 242.187 705.715 239.881V238.404ZM718.129 240.127C715.878 239.48 714.237 238.687 713.207 237.748C712.186 236.8 711.676 235.633 711.676 234.248C711.676 232.68 712.3 231.386 713.549 230.365C714.807 229.335 716.438 228.82 718.443 228.82C719.811 228.82 721.027 229.085 722.094 229.613C723.169 230.142 723.999 230.871 724.582 231.801C725.174 232.73 725.471 233.747 725.471 234.85H722.832C722.832 233.646 722.449 232.703 721.684 232.02C720.918 231.327 719.838 230.98 718.443 230.98C717.149 230.98 716.137 231.268 715.408 231.842C714.688 232.407 714.328 233.195 714.328 234.207C714.328 235.018 714.67 235.706 715.354 236.271C716.046 236.827 717.217 237.338 718.867 237.803C720.526 238.268 721.82 238.783 722.75 239.348C723.689 239.904 724.382 240.555 724.828 241.303C725.284 242.05 725.512 242.93 725.512 243.941C725.512 245.555 724.883 246.849 723.625 247.824C722.367 248.79 720.686 249.273 718.58 249.273C717.213 249.273 715.937 249.014 714.752 248.494C713.567 247.965 712.651 247.245 712.004 246.334C711.366 245.423 711.047 244.388 711.047 243.23H713.686C713.686 244.434 714.128 245.386 715.012 246.088C715.905 246.781 717.094 247.127 718.58 247.127C719.965 247.127 721.027 246.844 721.766 246.279C722.504 245.714 722.873 244.944 722.873 243.969C722.873 242.993 722.531 242.242 721.848 241.713C721.164 241.175 719.924 240.646 718.129 240.127ZM751.037 239.689C751.037 241.613 750.732 243.271 750.121 244.666C749.51 246.051 748.654 247.136 747.551 247.92L751.105 250.709L749.314 252.363L745.117 249.027C744.461 249.191 743.768 249.273 743.039 249.273C741.471 249.273 740.081 248.891 738.869 248.125C737.657 247.35 736.714 246.252 736.039 244.83C735.374 243.399 735.032 241.745 735.014 239.867V238.432C735.014 236.518 735.346 234.827 736.012 233.359C736.677 231.892 737.616 230.771 738.828 229.996C740.049 229.212 741.444 228.82 743.012 228.82C744.616 228.82 746.024 229.208 747.236 229.982C748.458 230.757 749.396 231.874 750.053 233.332C750.709 234.781 751.037 236.477 751.037 238.418V239.689ZM748.412 238.404C748.412 236.062 747.943 234.257 747.004 232.99C746.074 231.714 744.743 231.076 743.012 231.076C741.362 231.076 740.059 231.71 739.102 232.977C738.154 234.234 737.666 235.984 737.639 238.227V239.689C737.639 241.968 738.113 243.764 739.061 245.076C740.018 246.389 741.344 247.045 743.039 247.045C744.734 247.045 746.047 246.43 746.977 245.199C747.906 243.96 748.385 242.187 748.412 239.881V238.404ZM769.098 229.094V242.629C769.089 244.507 768.496 246.042 767.32 247.236C766.154 248.43 764.568 249.1 762.562 249.246L761.865 249.273C759.687 249.273 757.951 248.686 756.656 247.51C755.362 246.334 754.706 244.716 754.688 242.656V229.094H757.285V242.574C757.285 244.014 757.682 245.135 758.475 245.938C759.268 246.73 760.398 247.127 761.865 247.127C763.351 247.127 764.486 246.73 765.27 245.938C766.062 245.145 766.459 244.028 766.459 242.588V229.094H769.098ZM784.492 239.799H775.865V246.854H785.887V249H773.24V229.094H785.75V231.254H775.865V237.652H784.492V239.799Z" fill="black"/>
<path d="M575.158 547V522.828H583.625C586.558 522.828 588.783 523.393 590.299 524.521C591.815 525.639 592.573 527.283 592.573 529.452C592.573 530.636 592.269 531.682 591.66 532.59C591.051 533.486 590.205 534.145 589.12 534.565C590.36 534.875 591.334 535.501 592.042 536.441C592.761 537.382 593.121 538.533 593.121 539.895C593.121 542.219 592.38 543.979 590.896 545.174C589.413 546.369 587.299 546.978 584.555 547H575.158ZM580.139 536.475V542.999H584.405C585.578 542.999 586.492 542.722 587.145 542.169C587.809 541.604 588.141 540.83 588.141 539.845C588.141 537.631 586.995 536.508 584.704 536.475H580.139ZM580.139 532.955H583.824C586.337 532.911 587.593 531.909 587.593 529.95C587.593 528.854 587.272 528.069 586.63 527.593C585.999 527.106 584.997 526.862 583.625 526.862H580.139V532.955ZM607.315 545.174C606.131 546.613 604.493 547.332 602.401 547.332C600.476 547.332 599.004 546.779 597.985 545.672C596.978 544.565 596.464 542.944 596.441 540.808V529.037H601.239V540.642C601.239 542.512 602.091 543.447 603.796 543.447C605.423 543.447 606.541 542.883 607.149 541.754V529.037H611.964V547H607.448L607.315 545.174ZM623.851 547.332C621.216 547.332 619.069 546.524 617.409 544.908C615.76 543.292 614.936 541.14 614.936 538.45V537.985C614.936 536.181 615.284 534.571 615.981 533.154C616.679 531.727 617.664 530.631 618.937 529.867C620.22 529.092 621.681 528.705 623.319 528.705C625.776 528.705 627.708 529.48 629.113 531.029C630.53 532.579 631.238 534.776 631.238 537.62V539.579H619.8C619.955 540.752 620.42 541.693 621.194 542.401C621.98 543.11 622.971 543.464 624.166 543.464C626.014 543.464 627.459 542.794 628.499 541.455L630.856 544.095C630.137 545.113 629.163 545.91 627.935 546.485C626.706 547.05 625.345 547.332 623.851 547.332ZM623.303 532.59C622.351 532.59 621.576 532.911 620.979 533.553C620.392 534.195 620.016 535.113 619.85 536.309H626.523V535.927C626.501 534.864 626.214 534.045 625.66 533.47C625.107 532.883 624.321 532.59 623.303 532.59ZM638.394 529.037L638.543 531.112C639.827 529.507 641.548 528.705 643.706 528.705C645.61 528.705 647.026 529.264 647.956 530.382C648.886 531.5 649.362 533.171 649.384 535.396V547H644.586V535.512C644.586 534.493 644.365 533.757 643.922 533.304C643.479 532.839 642.743 532.606 641.714 532.606C640.364 532.606 639.351 533.182 638.676 534.333V547H633.878V529.037H638.394ZM652.289 537.853C652.289 536.071 652.632 534.482 653.318 533.088C654.005 531.693 654.99 530.614 656.273 529.851C657.568 529.087 659.068 528.705 660.772 528.705C663.196 528.705 665.172 529.447 666.699 530.93C668.238 532.413 669.095 534.427 669.272 536.973L669.306 538.201C669.306 540.957 668.536 543.171 666.998 544.842C665.46 546.502 663.396 547.332 660.806 547.332C658.216 547.332 656.146 546.502 654.597 544.842C653.058 543.182 652.289 540.924 652.289 538.068V537.853ZM657.087 538.201C657.087 539.906 657.408 541.212 658.05 542.119C658.692 543.016 659.61 543.464 660.806 543.464C661.968 543.464 662.875 543.021 663.528 542.136C664.181 541.239 664.508 539.812 664.508 537.853C664.508 536.181 664.181 534.886 663.528 533.968C662.875 533.049 661.957 532.59 660.772 532.59C659.599 532.59 658.692 533.049 658.05 533.968C657.408 534.875 657.087 536.286 657.087 538.201ZM681.989 542.036C681.989 541.45 681.696 540.99 681.109 540.658C680.534 540.315 679.604 540.011 678.32 539.745C674.048 538.849 671.912 537.034 671.912 534.3C671.912 532.706 672.571 531.378 673.888 530.315C675.216 529.242 676.948 528.705 679.084 528.705C681.364 528.705 683.185 529.242 684.546 530.315C685.918 531.389 686.604 532.784 686.604 534.499H681.807C681.807 533.813 681.585 533.248 681.143 532.806C680.7 532.352 680.008 532.125 679.067 532.125C678.259 532.125 677.634 532.308 677.191 532.673C676.749 533.038 676.527 533.503 676.527 534.067C676.527 534.599 676.776 535.03 677.274 535.362C677.784 535.683 678.636 535.965 679.831 536.209C681.026 536.441 682.034 536.707 682.853 537.006C685.387 537.936 686.654 539.546 686.654 541.837C686.654 543.475 685.951 544.803 684.546 545.821C683.14 546.828 681.325 547.332 679.101 547.332C677.595 547.332 676.256 547.066 675.083 546.535C673.921 545.993 673.008 545.257 672.344 544.327C671.68 543.386 671.348 542.374 671.348 541.289H675.896C675.941 542.141 676.256 542.794 676.843 543.248C677.429 543.702 678.215 543.929 679.2 543.929C680.119 543.929 680.811 543.757 681.275 543.414C681.751 543.06 681.989 542.601 681.989 542.036ZM712.188 542.02H703.455L701.795 547H696.499L705.497 522.828H710.112L719.16 547H713.864L712.188 542.02ZM704.8 537.985H710.843L707.805 528.938L704.8 537.985ZM726.166 547H721.352V529.037H726.166V547ZM721.069 524.389C721.069 523.669 721.307 523.077 721.783 522.612C722.27 522.147 722.929 521.915 723.759 521.915C724.578 521.915 725.231 522.147 725.718 522.612C726.205 523.077 726.448 523.669 726.448 524.389C726.448 525.119 726.199 525.717 725.701 526.182C725.214 526.646 724.567 526.879 723.759 526.879C722.951 526.879 722.298 526.646 721.8 526.182C721.313 525.717 721.069 525.119 721.069 524.389ZM740.228 533.536C739.575 533.448 738.999 533.403 738.501 533.403C736.686 533.403 735.496 534.018 734.932 535.246V547H730.134V529.037H734.666L734.799 531.179C735.762 529.53 737.095 528.705 738.8 528.705C739.331 528.705 739.829 528.777 740.294 528.921L740.228 533.536ZM750.487 547.332C747.853 547.332 745.706 546.524 744.046 544.908C742.397 543.292 741.572 541.14 741.572 538.45V537.985C741.572 536.181 741.921 534.571 742.618 533.154C743.315 531.727 744.3 530.631 745.573 529.867C746.857 529.092 748.318 528.705 749.956 528.705C752.413 528.705 754.344 529.48 755.75 531.029C757.167 532.579 757.875 534.776 757.875 537.62V539.579H746.437C746.591 540.752 747.056 541.693 747.831 542.401C748.617 543.11 749.607 543.464 750.803 543.464C752.651 543.464 754.095 542.794 755.136 541.455L757.493 544.095C756.774 545.113 755.8 545.91 754.571 546.485C753.343 547.05 751.981 547.332 750.487 547.332ZM749.939 532.59C748.988 532.59 748.213 532.911 747.615 533.553C747.029 534.195 746.652 535.113 746.486 536.309H753.16V535.927C753.138 534.864 752.85 534.045 752.297 533.47C751.743 532.883 750.958 532.59 749.939 532.59ZM770.343 542.036C770.343 541.45 770.049 540.99 769.463 540.658C768.887 540.315 767.958 540.011 766.674 539.745C762.402 538.849 760.266 537.034 760.266 534.3C760.266 532.706 760.924 531.378 762.241 530.315C763.569 529.242 765.301 528.705 767.438 528.705C769.717 528.705 771.538 529.242 772.899 530.315C774.272 531.389 774.958 532.784 774.958 534.499H770.16C770.16 533.813 769.939 533.248 769.496 532.806C769.053 532.352 768.362 532.125 767.421 532.125C766.613 532.125 765.988 532.308 765.545 532.673C765.102 533.038 764.881 533.503 764.881 534.067C764.881 534.599 765.13 535.03 765.628 535.362C766.137 535.683 766.989 535.965 768.185 536.209C769.38 536.441 770.387 536.707 771.206 537.006C773.741 537.936 775.008 539.546 775.008 541.837C775.008 543.475 774.305 544.803 772.899 545.821C771.494 546.828 769.679 547.332 767.454 547.332C765.949 547.332 764.61 547.066 763.437 546.535C762.274 545.993 761.361 545.257 760.697 544.327C760.033 543.386 759.701 542.374 759.701 541.289H764.25C764.294 542.141 764.61 542.794 765.196 543.248C765.783 543.702 766.569 543.929 767.554 543.929C768.472 543.929 769.164 543.757 769.629 543.414C770.105 543.06 770.343 542.601 770.343 542.036ZM586.298 587H581.5V568.506L575.772 570.282V566.381L585.783 562.795H586.298V587ZM610.437 577.006C610.437 580.348 609.745 582.905 608.361 584.676C606.978 586.447 604.952 587.332 602.285 587.332C599.651 587.332 597.637 586.463 596.242 584.726C594.848 582.988 594.134 580.498 594.101 577.255V572.806C594.101 569.43 594.798 566.868 596.192 565.119C597.598 563.37 599.618 562.496 602.252 562.496C604.886 562.496 606.9 563.365 608.295 565.103C609.689 566.829 610.403 569.314 610.437 572.557V577.006ZM605.639 572.125C605.639 570.122 605.362 568.666 604.809 567.759C604.266 566.84 603.414 566.381 602.252 566.381C601.123 566.381 600.287 566.818 599.745 567.692C599.214 568.556 598.932 569.911 598.898 571.76V577.637C598.898 579.607 599.164 581.073 599.695 582.036C600.238 582.988 601.101 583.464 602.285 583.464C603.458 583.464 604.305 583.005 604.825 582.086C605.345 581.167 605.617 579.762 605.639 577.869V572.125ZM623.22 578.583H613.873V574.715H623.22V578.583ZM641.033 582.02H632.301L630.641 587H625.345L634.343 562.828H638.958L648.006 587H642.71L641.033 582.02ZM633.646 577.985H639.688L636.65 568.938L633.646 577.985ZM649.251 577.886C649.251 575.13 649.904 572.911 651.21 571.229C652.527 569.546 654.298 568.705 656.522 568.705C658.493 568.705 660.025 569.38 661.121 570.73L661.32 569.037H665.67V586.402C665.67 587.974 665.31 589.341 664.591 590.503C663.882 591.665 662.881 592.55 661.586 593.159C660.291 593.768 658.775 594.072 657.037 594.072C655.72 594.072 654.436 593.807 653.186 593.275C651.935 592.755 650.989 592.08 650.347 591.25L652.472 588.328C653.667 589.667 655.117 590.337 656.821 590.337C658.094 590.337 659.085 589.994 659.793 589.308C660.501 588.632 660.855 587.67 660.855 586.419V585.456C659.749 586.707 658.293 587.332 656.489 587.332C654.331 587.332 652.582 586.491 651.243 584.809C649.915 583.115 649.251 580.874 649.251 578.085V577.886ZM654.049 578.234C654.049 579.861 654.375 581.14 655.028 582.069C655.681 582.988 656.578 583.447 657.718 583.447C659.179 583.447 660.225 582.899 660.855 581.804V574.25C660.214 573.154 659.179 572.606 657.751 572.606C656.6 572.606 655.692 573.077 655.028 574.018C654.375 574.958 654.049 576.364 654.049 578.234ZM668.625 577.853C668.625 576.071 668.968 574.482 669.654 573.088C670.34 571.693 671.326 570.614 672.609 569.851C673.904 569.087 675.404 568.705 677.108 568.705C679.532 568.705 681.508 569.447 683.035 570.93C684.574 572.413 685.431 574.427 685.608 576.973L685.642 578.201C685.642 580.957 684.872 583.171 683.334 584.842C681.796 586.502 679.731 587.332 677.142 587.332C674.552 587.332 672.482 586.502 670.933 584.842C669.394 583.182 668.625 580.924 668.625 578.068V577.853ZM673.423 578.201C673.423 579.906 673.744 581.212 674.386 582.119C675.028 583.016 675.946 583.464 677.142 583.464C678.304 583.464 679.211 583.021 679.864 582.136C680.517 581.239 680.844 579.812 680.844 577.853C680.844 576.181 680.517 574.886 679.864 573.968C679.211 573.049 678.293 572.59 677.108 572.59C675.935 572.59 675.028 573.049 674.386 573.968C673.744 574.875 673.423 576.286 673.423 578.201ZM697.927 578.583H688.58V574.715H697.927V578.583ZM718.147 587H701.579V583.713L709.398 575.379C710.472 574.206 711.263 573.182 711.772 572.308C712.293 571.433 712.553 570.603 712.553 569.817C712.553 568.744 712.282 567.903 711.739 567.294C711.197 566.674 710.422 566.364 709.415 566.364C708.33 566.364 707.473 566.741 706.842 567.493C706.222 568.235 705.912 569.214 705.912 570.432H701.098C701.098 568.96 701.446 567.615 702.144 566.397C702.852 565.18 703.848 564.228 705.132 563.542C706.416 562.845 707.871 562.496 709.498 562.496C711.988 562.496 713.92 563.094 715.292 564.289C716.675 565.484 717.367 567.172 717.367 569.353C717.367 570.548 717.057 571.765 716.438 573.005C715.818 574.244 714.755 575.689 713.25 577.338L707.755 583.132H718.147V587ZM737.372 577.006C737.372 580.348 736.68 582.905 735.297 584.676C733.913 586.447 731.888 587.332 729.221 587.332C726.587 587.332 724.572 586.463 723.178 584.726C721.783 582.988 721.069 580.498 721.036 577.255V572.806C721.036 569.43 721.733 566.868 723.128 565.119C724.534 563.37 726.553 562.496 729.188 562.496C731.822 562.496 733.836 563.365 735.23 565.103C736.625 566.829 737.339 569.314 737.372 572.557V577.006ZM732.574 572.125C732.574 570.122 732.298 568.666 731.744 567.759C731.202 566.84 730.35 566.381 729.188 566.381C728.059 566.381 727.223 566.818 726.681 567.692C726.149 568.556 725.867 569.911 725.834 571.76V577.637C725.834 579.607 726.1 581.073 726.631 582.036C727.173 582.988 728.036 583.464 729.221 583.464C730.394 583.464 731.241 583.005 731.761 582.086C732.281 581.167 732.552 579.762 732.574 577.869V572.125ZM757.194 587H740.626V583.713L748.445 575.379C749.519 574.206 750.31 573.182 750.819 572.308C751.34 571.433 751.6 570.603 751.6 569.817C751.6 568.744 751.328 567.903 750.786 567.294C750.244 566.674 749.469 566.364 748.462 566.364C747.377 566.364 746.52 566.741 745.889 567.493C745.269 568.235 744.959 569.214 744.959 570.432H740.145C740.145 568.96 740.493 567.615 741.19 566.397C741.899 565.18 742.895 564.228 744.179 563.542C745.463 562.845 746.918 562.496 748.545 562.496C751.035 562.496 752.966 563.094 754.339 564.289C755.722 565.484 756.414 567.172 756.414 569.353C756.414 570.548 756.104 571.765 755.484 573.005C754.865 574.244 753.802 575.689 752.297 577.338L746.802 583.132H757.194V587ZM776.419 577.006C776.419 580.348 775.727 582.905 774.344 584.676C772.96 586.447 770.935 587.332 768.268 587.332C765.633 587.332 763.619 586.463 762.225 584.726C760.83 582.988 760.116 580.498 760.083 577.255V572.806C760.083 569.43 760.78 566.868 762.175 565.119C763.58 563.37 765.6 562.496 768.234 562.496C770.868 562.496 772.883 563.365 774.277 565.103C775.672 566.829 776.386 569.314 776.419 572.557V577.006ZM771.621 572.125C771.621 570.122 771.344 568.666 770.791 567.759C770.249 566.84 769.396 566.381 768.234 566.381C767.105 566.381 766.27 566.818 765.728 567.692C765.196 568.556 764.914 569.911 764.881 571.76V577.637C764.881 579.607 765.146 581.073 765.678 582.036C766.22 582.988 767.083 583.464 768.268 583.464C769.441 583.464 770.287 583.005 770.808 582.086C771.328 581.167 771.599 579.762 771.621 577.869V572.125Z" fill="#6C6A6C"/>
<path d="M543.814 142.628C569.669 142.628 590.628 121.669 590.628 95.8141C590.628 69.9594 569.669 49 543.814 49C517.959 49 497 69.9594 497 95.8141C497 121.669 517.959 142.628 543.814 142.628Z" fill="#FD1015"/>
<path fill-rule="evenodd" clip-rule="evenodd" d="M553.983 107.743C553.942 108.014 553.708 108.222 553.425 108.222C553.418 108.222 553.41 108.222 553.402 108.222V108.222H533.098C532.786 108.222 532.533 107.97 532.533 107.658H532.51C532.224 104.184 529.313 101.454 525.765 101.454C522.217 101.454 519.307 104.184 519.02 107.658H519.02C519.02 107.659 519.02 107.661 519.02 107.662C519.018 107.688 519.016 107.715 519.014 107.741C518.974 108.013 518.739 108.222 518.456 108.222C518.448 108.222 518.44 108.222 518.433 108.222V108.222H516.741C516.429 108.222 516.177 107.97 516.177 107.658V106.53C516.177 106.219 516.429 105.966 516.741 105.966L516.741 98.6338C516.741 98.3223 516.993 98.0698 517.305 98.0698H560.741C563.755 98.0698 566.463 99.3845 568.321 101.472C568.461 101.629 568.637 101.849 568.85 102.131C569.063 102.415 569.397 102.582 569.752 102.582V102.582H570.345C570.763 102.582 571.321 102.582 572.019 102.582C572.64 102.584 573.143 103.088 573.143 103.71V107.094C573.143 107.717 572.638 108.222 572.015 108.222H568.067V108.222C568.06 108.222 568.052 108.222 568.044 108.222C567.76 108.222 567.525 108.012 567.486 107.738C567.484 107.714 567.482 107.689 567.48 107.665C567.48 107.663 567.48 107.661 567.48 107.658H567.48C567.193 104.184 564.283 101.454 560.735 101.454C557.187 101.454 554.276 104.184 553.99 107.658H553.989C553.989 107.659 553.989 107.659 553.989 107.66C553.987 107.688 553.985 107.715 553.983 107.743ZM572.015 99.7619C572.015 100.073 571.763 100.326 571.451 100.326H570.564C570.403 100.326 570.25 100.257 570.143 100.137L570.143 100.137C569.773 99.7209 569.48 99.4108 569.264 99.2065C567.042 97.1034 564.042 95.8137 560.741 95.8137H517.305C516.993 95.8137 516.741 95.5612 516.741 95.2497L516.741 82.1282C516.741 79.597 518.606 77.4526 521.112 77.1012C528.685 76.0396 535.814 75.5088 542.5 75.5088C554.438 75.5088 559.079 76.4589 563.555 78.8929C566.28 80.3751 568.869 83.9543 571.321 89.6305C571.779 90.6899 572.015 91.8317 572.015 92.9858V99.7619ZM516.741 96.3777H516.741V97.5058H516.741V96.3777ZM520.125 81.7131C519.813 81.7131 519.561 81.9656 519.561 82.2771V90.7375C519.561 91.049 519.813 91.3015 520.125 91.3015H528.585C528.897 91.3015 529.149 91.049 529.149 90.7375V82.2771C529.149 81.9656 528.897 81.7131 528.585 81.7131H520.125ZM543.814 81.7131C543.502 81.7131 543.25 81.9656 543.25 82.2771V90.7375C543.25 91.049 543.502 91.3015 543.814 91.3015H552.274C552.586 91.3015 552.838 91.049 552.838 90.7375V82.2771C552.838 81.9656 552.586 81.7131 552.274 81.7131H543.814ZM531.969 81.7131C531.658 81.7131 531.405 81.9656 531.405 82.2771V90.7375C531.405 91.049 531.658 91.3015 531.969 91.3015H540.43C540.741 91.3015 540.994 91.049 540.994 90.7375V82.2771C540.994 81.9656 540.741 81.7131 540.43 81.7131H531.969ZM555.659 81.7131C555.347 81.7131 555.094 81.9656 555.094 82.2771V90.7375C555.094 91.049 555.347 91.3015 555.659 91.3015H568.665C568.734 91.3015 568.803 91.2888 568.867 91.264C569.158 91.1524 569.303 90.8261 569.192 90.5353L569.192 90.5353C568.573 88.9253 567.859 87.4445 567.048 86.093C566.926 85.8899 566.814 85.6885 566.712 85.4888C565.525 83.1711 563.141 81.7131 560.537 81.7131L555.659 81.7131ZM525.765 112.734C523.273 112.734 521.253 110.714 521.253 108.222C521.253 105.73 523.273 103.71 525.765 103.71C528.257 103.71 530.277 105.73 530.277 108.222C530.277 110.714 528.257 112.734 525.765 112.734ZM525.765 110.478C527.011 110.478 528.021 109.468 528.021 108.222C528.021 106.976 527.011 105.966 525.765 105.966C524.519 105.966 523.509 106.976 523.509 108.222C523.509 109.468 524.519 110.478 525.765 110.478ZM560.735 112.734C558.243 112.734 556.223 110.714 556.223 108.222C556.223 105.73 558.243 103.71 560.735 103.71C563.227 103.71 565.247 105.73 565.247 108.222C565.247 110.714 563.227 112.734 560.735 112.734ZM560.735 110.478C561.981 110.478 562.991 109.468 562.991 108.222C562.991 106.976 561.981 105.966 560.735 105.966C559.489 105.966 558.479 106.976 558.479 108.222C558.479 109.468 559.489 110.478 560.735 110.478Z" fill="white"/>
<path fill-rule="evenodd" clip-rule="evenodd" d="M619.961 94.0704H632.223C631.167 91.7355 628.819 90.1109 626.092 90.1109C623.365 90.1109 621.017 91.7355 619.961 94.0704ZM638.473 99.2178C638.336 99.4545 638.08 99.6137 637.787 99.6137H619.961C621.017 101.949 623.365 103.573 626.092 103.573C627.401 103.573 628.622 103.199 629.655 102.552C629.886 102.408 630.176 102.183 630.527 101.877C630.806 101.633 631.183 101.534 631.546 101.609L636.186 102.566C636.614 102.654 636.889 103.073 636.801 103.501C636.782 103.596 636.745 103.686 636.693 103.767C636.646 103.841 636.602 103.908 636.562 103.967C635.413 105.655 633.867 107.05 632.059 108.019C630.281 108.972 628.25 109.512 626.092 109.512C619.1 109.512 613.432 103.84 613.432 96.8421C613.432 89.8444 619.1 84.1717 626.092 84.1717C633.084 84.1717 638.752 89.8444 638.752 96.8421C638.752 97.6541 638.675 98.4482 638.53 99.2178H638.473ZM604.729 107.9V74.9728C604.729 74.5833 605.002 74.2475 605.384 74.1691L609.677 73.2874C610.121 73.1963 610.555 73.4822 610.646 73.926C610.657 73.9803 610.663 74.0356 610.663 74.0911V107.9C610.663 108.353 610.296 108.721 609.842 108.721H605.549C605.096 108.721 604.729 108.353 604.729 107.9ZM663.699 108.721H658.935C658.584 108.721 658.272 108.498 658.159 108.166L650.596 86.0494C650.449 85.6207 650.678 85.1543 651.107 85.0077C651.192 84.9785 651.282 84.9636 651.372 84.9636H655.573C655.923 84.9636 656.235 85.1866 656.349 85.5185L660.929 98.912C661.002 99.1264 661.235 99.2407 661.45 99.1674C661.57 99.1264 661.664 99.0321 661.705 98.912L666.285 85.5185C666.398 85.1866 666.71 84.9636 667.061 84.9636H671.824C672.175 84.9636 672.487 85.1866 672.6 85.5185L677.18 98.912C677.253 99.1264 677.487 99.2407 677.701 99.1674C677.821 99.1264 677.915 99.0321 677.956 98.912L682.536 85.5185C682.65 85.1866 682.962 84.9636 683.313 84.9636H687.513C687.966 84.9636 688.333 85.3309 688.333 85.784C688.333 85.8743 688.318 85.964 688.289 86.0494L680.726 108.166C680.613 108.498 680.301 108.721 679.95 108.721H675.186C674.836 108.721 674.524 108.498 674.41 108.166L669.831 94.7736C669.757 94.5593 669.524 94.4449 669.31 94.5182C669.19 94.5593 669.095 94.6536 669.054 94.7736L664.475 108.166C664.362 108.498 664.05 108.721 663.699 108.721ZM708.381 107.319C706.352 108.703 703.9 109.512 701.26 109.512C694.268 109.512 688.6 103.84 688.6 96.8421C688.6 89.8444 694.268 84.1717 701.26 84.1717C703.9 84.1717 706.352 84.9807 708.381 86.3647V85.7555C708.381 85.3181 708.735 84.9636 709.172 84.9636H713.524C713.961 84.9636 714.315 85.3181 714.315 85.7555V107.929C714.315 108.366 713.961 108.721 713.524 108.721H709.172C708.735 108.721 708.381 108.366 708.381 107.929V107.319ZM701.655 103.573C705.37 103.573 708.381 100.56 708.381 96.8421C708.381 93.1245 705.37 90.1109 701.655 90.1109C697.941 90.1109 694.93 93.1245 694.93 96.8421C694.93 100.56 697.941 103.573 701.655 103.573ZM736.866 86.3647V85.7555C736.866 85.3181 737.22 84.9636 737.657 84.9636H742.009C742.446 84.9636 742.8 85.3181 742.8 85.7555V107.929H742.798C742.693 114.944 736.977 120.599 729.942 120.599C728.104 120.599 726.357 120.213 724.775 119.518C724.356 119.334 723.813 119.035 723.146 118.623C722.673 118.332 722.466 117.751 722.647 117.226L724.05 113.149C724.192 112.736 724.642 112.516 725.056 112.658C725.158 112.694 725.253 112.75 725.333 112.824C725.855 113.303 726.308 113.645 726.69 113.849C727.659 114.367 728.767 114.66 729.942 114.66C733.7 114.66 736.758 111.664 736.863 107.929H736.866V107.319C734.837 108.703 732.385 109.512 729.744 109.512C722.753 109.512 717.085 103.84 717.085 96.8421C717.085 89.8444 722.753 84.1717 729.744 84.1717C732.385 84.1717 734.837 84.9807 736.866 86.3647ZM730.14 103.573C733.854 103.573 736.866 100.56 736.866 96.8421C736.866 93.1245 733.854 90.1109 730.14 90.1109C726.426 90.1109 723.414 93.1245 723.414 96.8421C723.414 100.56 726.426 103.573 730.14 103.573ZM758.229 109.512C751.237 109.512 745.569 103.84 745.569 96.8421C745.569 89.8444 751.237 84.1717 758.229 84.1717C765.221 84.1717 770.889 89.8444 770.889 96.8421C770.889 103.84 765.221 109.512 758.229 109.512ZM758.229 103.573C761.943 103.573 764.955 100.56 764.955 96.8421C764.955 93.1245 761.943 90.1109 758.229 90.1109C754.515 90.1109 751.503 93.1245 751.503 96.8421C751.503 100.56 754.515 103.573 758.229 103.573ZM797 95.6542V107.929C797 108.366 796.645 108.721 796.208 108.721H791.461C791.024 108.721 790.67 108.366 790.67 107.929V96.0502H790.656C790.665 95.9194 790.67 95.7873 790.67 95.6542C790.67 92.5927 788.19 90.1109 785.131 90.1109C782.072 90.1109 779.592 92.5927 779.592 95.6542C779.592 95.7873 779.597 95.9194 779.606 96.0502H779.592V107.929C779.592 108.366 779.238 108.721 778.801 108.721H774.449C774.012 108.721 773.658 108.366 773.658 107.929V85.7555C773.658 85.3181 774.012 84.9636 774.449 84.9636H778.801C779.238 84.9636 779.592 85.3181 779.592 85.7555V85.825C781.324 84.7757 783.355 84.1717 785.527 84.1717C791.863 84.1717 797 89.3126 797 95.6542Z" fill="#0E0000"/>
</g>
<defs>
<linearGradient id="paint0_linear" x1="655.054" y1="632.887" x2="655.054" y2="707.435" gradientUnits="userSpaceOnUse">
<stop stop-color="white"/>
<stop offset="1" stop-color="#FCF5E8"/>
</linearGradient>
</defs>
</svg>
