<svg width="22" height="24" viewBox="0 0 22 24" fill="none" xmlns="http://www.w3.org/2000/svg">
<path d="M22 16.875V1.125C22 0.501562 21.4746 0 20.8214 0H4.71429C2.11161 0 0 2.01562 0 4.5V19.5C0 21.9844 2.11161 24 4.71429 24H20.8214C21.4746 24 22 23.4984 22 22.875V22.125C22 21.7734 21.8281 21.4547 21.5629 21.2484C21.3567 20.5266 21.3567 18.4688 21.5629 17.7469C21.8281 17.5453 22 17.2266 22 16.875ZM6.28571 6.28125C6.28571 6.12656 6.4183 6 6.58036 6H16.9911C17.1531 6 17.2857 6.12656 17.2857 6.28125V7.21875C17.2857 7.37344 17.1531 7.5 16.9911 7.5H6.58036C6.4183 7.5 6.28571 7.37344 6.28571 7.21875V6.28125ZM6.28571 9.28125C6.28571 9.12656 6.4183 9 6.58036 9H16.9911C17.1531 9 17.2857 9.12656 17.2857 9.28125V10.2188C17.2857 10.3734 17.1531 10.5 16.9911 10.5H6.58036C6.4183 10.5 6.28571 10.3734 6.28571 10.2188V9.28125ZM18.7295 21H4.71429C3.84509 21 3.14286 20.3297 3.14286 19.5C3.14286 18.675 3.85 18 4.71429 18H18.7295C18.6362 18.8016 18.6362 20.1984 18.7295 21Z" fill="black"/>
</svg>
