<svg width="22" height="24" viewBox="0 0 22 24" fill="none" xmlns="http://www.w3.org/2000/svg">
<path d="M21.3445 13.4998H11.7483L18.1392 20.9075C18.3834 21.1906 18.7854 21.2136 19.0366 20.9393C20.6016 19.2303 21.6782 16.9264 21.994 14.3365C22.0482 13.8931 21.7307 13.4998 21.3445 13.4998ZM20.7044 10.4623C20.3711 4.86263 16.5106 0.387945 11.6795 0.001695C11.3107 -0.0278362 11.0001 0.332632 11.0001 0.76107V11.2498H20.0496C20.4192 11.2498 20.7298 10.8898 20.7044 10.4623ZM9.05891 13.4998V2.37685C9.05891 1.92919 8.71961 1.56123 8.33744 1.62404C3.51807 2.41341 -0.16572 7.29357 0.00575015 13.1422C0.182074 19.1487 4.64395 24.0744 9.82851 23.9989C11.8667 23.9693 13.7501 23.2081 15.2986 21.935C15.6181 21.6725 15.6391 21.1273 15.3621 20.8062L9.05891 13.4998Z" fill="black"/>
</svg>
