<svg width="22" height="24" viewBox="0 0 22 24" fill="none" xmlns="http://www.w3.org/2000/svg">
<path d="M20.943 14.7984L19.1125 13.6453C19.2972 12.5578 19.2972 11.4422 19.1125 10.3547L20.943 9.20156C21.1535 9.07031 21.248 8.79844 21.1793 8.54531C20.7023 6.87656 19.8902 5.36719 18.8289 4.11094C18.6656 3.91875 18.3992 3.87188 18.193 4.00313L16.3625 5.15625C15.5933 4.43438 14.7082 3.87657 13.75 3.51094V1.20938C13.75 0.946878 13.5824 0.71719 13.3461 0.66094C11.7691 0.276565 10.1535 0.295315 8.65389 0.66094C8.41756 0.71719 8.24998 0.946878 8.24998 1.20938V3.51563C7.29608 3.88594 6.41092 4.44375 5.63748 5.16094L3.81131 4.00782C3.60076 3.87656 3.33865 3.91875 3.17537 4.11563C2.11404 5.36719 1.30194 6.87656 0.824982 8.55C0.751935 8.80313 0.850763 9.075 1.06131 9.20625L2.89178 10.3594C2.70701 11.4469 2.70701 12.5625 2.89178 13.65L1.06131 14.8031C0.850763 14.9344 0.756232 15.2063 0.824982 15.4594C1.30194 17.1281 2.11404 18.6375 3.17537 19.8938C3.33865 20.0859 3.60506 20.1328 3.81131 20.0016L5.64178 18.8484C6.41092 19.5703 7.29608 20.1281 8.25428 20.4938V22.8C8.25428 23.0625 8.42186 23.2922 8.65819 23.3484C10.2351 23.7328 11.8508 23.7141 13.3504 23.3484C13.5867 23.2922 13.7543 23.0625 13.7543 22.8V20.4938C14.7082 20.1234 15.5933 19.5656 16.3668 18.8484L18.1972 20.0016C18.4078 20.1328 18.6699 20.0906 18.8332 19.8938C19.8945 18.6422 20.7066 17.1328 21.1836 15.4594C21.248 15.2016 21.1535 14.9297 20.943 14.7984ZM11 15.75C9.10506 15.75 7.56248 14.0672 7.56248 12C7.56248 9.93281 9.10506 8.25 11 8.25C12.8949 8.25 14.4375 9.93281 14.4375 12C14.4375 14.0672 12.8949 15.75 11 15.75Z" fill="black"/>
</svg>
